<?xml version="1.0" encoding="UTF-8" standalone="no"?>
<svg version="1.0" xmlns="http://www.w3.org/2000/svg" width="345" height="380" viewBox="0 0 345 380" >
<title> Man with hat - Selfhtml Design 02</title>

<g transform="translate(0,380) scale(0.1,-0.1)" fill="#000000" stroke="none">
<path fill="#333" d="M1175 3576 c-139 -34 -204 -99 -286 -286 -62 -141 -64 -145 -124 -275 -20 -44 -45 -100 -55 -125 -10 -25 -38 -88 -63 -140 -25 -52 -48 -104 -51 -115 -5 -18 -16 -20 -118 -22 -62 -2 -128 -5 -145 -8 -18 -3 -50 -8 -70 -11 -64 -10 -156 -44 -193 -72 -80 -60 -80 -87 -2 -162 31 -30 75 -66 97 -78 68 -37 208 -102 235 -109 14 -3 41 -14 60 -25 19 -10 42 -18 51 -18 15 0 14 -9 -8 -81 -21 -70 -23 -87 -14 -124 15 -60 15 -62 -17 -70 -31 -8 -87 -47 -119 -84 -27 -32 -63 -122 -69 -175 -12 -100 35 -252 97 -314 37 -38 98 -72 128 -72 32 0 28 11 95 -305 39 -184 64 -247 129 -328 26 -31 47 -58 47 -59 0 -2 -30 -3 -68 -3 -55 0 -75 -5 -114 -27 -76 -45 -133 -139 -182 -303 -22 -75 -46 -167 -46 -179 0 -3 693 -6 1540 -6 l1540 0 -29 58 c-36 71 -53 82 -271 190 -160 78 -500 284 -530 322 -162 198 -303 373 -334 412 l-38 50 23 15 c82 55 169 184 169 249 0 20 25 84 63 160 54 110 62 135 62 183 0 31 -4 64 -9 73 -6 14 -2 20 15 26 13 5 60 21 104 37 108 38 162 92 189 188 18 66 18 69 0 108 -23 53 -76 95 -199 160 -165 87 -177 96 -171 127 5 24 22 146 45 332 5 36 9 110 10 165 3 148 -23 199 -144 288 -110 81 -176 115 -476 242 -333 142 -393 163 -544 190 -94 18 -142 18 -210 1z m-503 -1487 c35 -6 178 -12 323 -14 284 -2 342 -10 503 -66 94 -33 255 -114 346 -174 l56 -38 0 -93 c0 -86 -2 -94 -19 -94 -12 0 -21 9 -25 24 -10 40 -101 130 -163 163 -66 35 -108 49 -175 58 -27 3 -47 11 -45 17 3 18 -44 38 -89 38 -22 0 -63 -7 -90 -15 -27 -8 -67 -13 -89 -10 -22 2 -127 7 -234 11 -107 3 -206 10 -219 15 -25 10 -55 34 -155 126 -35 33 -46 50 -42 63 5 15 11 17 30 10 12 -5 52 -14 87 -21z m418 -268 c12 -1 14 -12 12 -53 l-4 -53 -40 0 -40 0 6 44 c3 24 6 50 6 57 0 9 8 12 23 10 12 -3 29 -5 37 -5z m16 -178 c25 -116 39 -159 76 -234 l43 -86 -32 0 c-42 0 -67 -22 -88 -81 -48 -133 -63 -152 -130 -152 -75 0 -128 57 -113 121 5 25 -17 20 -24 -6 -8 -31 25 -181 51 -234 28 -53 76 -76 161 -76 51 0 77 6 120 27 85 42 106 67 124 148 16 69 16 72 -4 100 -20 28 -50 102 -50 123 0 5 26 -15 58 -45 82 -78 154 -111 245 -112 56 0 83 5 119 23 95 46 174 158 199 279 7 34 18 62 25 62 32 0 32 -143 1 -220 -20 -50 -28 -58 -87 -90 -42 -23 -66 -42 -68 -55 -1 -11 -9 -45 -17 -75 -13 -47 -13 -61 -1 -101 17 -56 13 -135 -11 -201 -51 -143 -265 -324 -418 -354 -73 -14 -101 0 -84 43 5 14 9 28 9 33 0 13 -149 1 -197 -16 -38 -14 -83 -54 -83 -75 0 -4 12 -22 27 -40 l28 -32 -44 28 c-43 29 -131 140 -131 167 0 8 -21 41 -46 74 -59 75 -89 135 -103 204 -21 104 -62 295 -75 350 l-13 56 64 12 c114 22 198 77 267 177 23 33 48 74 55 90 22 48 51 148 51 173 0 19 5 22 45 22 41 0 45 -2 51 -27z"/>
<path id="mark" d="M1370 965 c0 -2 12 -34 27 -70 22 -55 25 -70 15 -85 -17 -28 -15 -48 8 -55 27 -9 62 12 56 33 -3 9 -10 35 -15 58 -11 43 -64 124 -81 124 -6 0 -10 -2 -10 -5z"/>
<path id="mouth" d="M1285 814 c-149 -89 -267 -88 -492 7 -59 24 -49 -2 28 -76 96 -92 143 -110 279 -109 110 0 197 26 243 73 29 28 29 29 15 76 -7 27 -18 49 -23 51 -6 1 -28 -9 -50 -22z"/>
</g>

<path id="sunglasses" fill="#09c" d="M110,200 h1 v1 z"/>
</svg>