<?xml version="1.0" standalone="no"?>
<svg version="1.0" xmlns="http://www.w3.org/2000/svg" width="345" height="380" viewBox="0 0 345 380">
<title> Man with hat - Selfhtml Design 02</title>
<defs>
  <style>
    .background {
	  fill: #333;
	}
    .face {
	  fill: #eee;
	}	
    .sunglasses {
	  fill: #8db243;
	}
  </style>

</defs>  

<path class="face" fill="#ddd" d="M58,150 h150 v205 h-105 l-24,-22 -10,-20 -12,-43 l-5,-120 z"/> 
<g transform="scale(0.1,0.1)" >
<path class="background" d="M370 3794 c0 -12 24 -104 46 -179 49 -164 106 -258 182 -303 39 -22
59 -27 114 -27 38 0 68 -1 68 -3 0 -1 -21 -28 -47 -59 -65 -81 -90 -144 -129
-328 -67 -316 -63 -305 -95 -305 -30 0 -91 -34 -128 -72 -62 -62 -109 -214
-97 -314 6 -53 42 -143 69 -175 32 -37 88 -76 120 -84 31 -8 31 -10 16 -70 -9
-37 -7 -54 14 -124 22 -72 23 -81 8 -81 -9 0 -32 -8 -51 -18 -19 -11 -46 -22
-60 -25 -27 -7 -167 -72 -235 -109 -22 -12 -66 -48 -98 -78 -77 -75 -77 -102
3 -162 37 -28 129 -62 193 -72 20 -3 52 -8 70 -11 17 -3 83 -6 145 -8 102 -2
113 -4 118 -22 3 -11 26 -63 51 -115 25 -52 53 -115 63 -140 10 -25 35 -81 55
-125 60 -130 62 -134 124 -275 48 -109 69 -145 110 -186 91 -92 208 -127 354
-105 154 24 235 51 576 196 300 127 366 161 476 242 121 89 147 140 144 288
-1 55 -5 129 -10 165 -23 186 -40 308 -45 332 -6 31 6 40 171 127 123 65 176
107 199 160 18 39 18 42 0 108 -27 96 -81 150 -189 188 -44 16 -91 32 -104 37
-17 6 -21 12 -15 26 5 9 9 42 9 73 0 48 -8 73 -62 183 -38 76 -63 140 -63 160
0 65 -87 194 -169 249 l-23 15 38 50 c31 39 172 214 334 412 30 38 370 244
530 322 218 108 235 119 271 190 l29 58 -1540 0 c-847 0 -1540 -3 -1540 -6z
m586 -345 c-14 -17 -26 -34 -26 -38 0 -21 45 -61 83 -75 48 -17 197 -29 197
-16 0 5 -4 19 -9 33 -17 43 11 57 84 43 153 -30 367 -211 418 -354 24 -66 28
-145 11 -201 -12 -40 -12 -54 1 -101 8 -30 16 -64 17 -75 2 -13 26 -32 68 -55
59 -32 67 -40 87 -90 31 -77 31 -220 -1 -220 -7 0 -18 28 -25 63 -25 120 -104
232 -199 278 -36 18 -63 23 -119 23 -91 -1 -163 -34 -245 -112 -32 -30 -58
-50 -58 -45 0 21 30 95 50 123 20 28 20 31 4 100 -18 81 -39 106 -124 148 -43
21 -69 27 -120 27 -85 0 -133 -23 -161 -76 -28 -55 -59 -203 -50 -237 7 -27
29 -30 23 -3 -2 8 -1 29 3 48 8 43 54 73 110 73 67 0 82 -19 130 -152 21 -59
46 -81 88 -81 l32 0 -43 -86 c-37 -75 -51 -118 -76 -233 -6 -26 -10 -28 -51
-28 -40 0 -45 3 -45 23 0 24 -29 124 -51 172 -7 17 -32 57 -55 90 -69 100
-153 155 -267 177 l-64 12 13 56 c13 55 54 246 75 350 14 69 44 129 103 204
25 33 46 66 46 74 0 25 83 133 125 162 51 37 52 37 21 -1z m944 -1353 l0 -93
-56 -38 c-91 -60 -252 -141 -346 -174 -161 -56 -219 -64 -503 -66 -240 -2
-349 -12 -410 -35 -19 -7 -25 -5 -30 10 -4 13 7 30 42 63 100 92 130 116 155
126 13 5 112 12 219 15 107 4 212 9 234 11 22 3 62 -2 89 -10 27 -8 68 -15 90
-15 45 0 92 20 89 38 -2 6 18 14 45 17 67 9 109 23 175 58 62 33 153 123 163
163 4 15 13 24 25 24 17 0 19 -8 19 -94z m-798 -64 c2 -41 0 -52 -12 -53 -8 0
-25 -2 -36 -4 -19 -4 -22 2 -28 42 -9 68 -9 68 33 68 l39 0 4 -53z"/>
<path id="mark" class="background" d="M981 3155 c-71 -20 -104 -41 -175 -114 -63 -63 -67 -84 -13 -62 224
94 327 97 485 11 30 -16 58 -27 62 -25 4 3 13 26 19 52 12 45 11 47 -16 75
-63 62 -249 95 -362 63z"/>
<path id="mouth" class="background" d="M1413 3043 c-16 -6 -16 -28 -1 -53 10 -15 7 -30 -15 -86 -29 -68 -29
-86 -2 -64 26 21 56 79 71 133 12 47 12 53 -3 65 -18 13 -29 14 -50 5z"/>

<path class="sunglasses" fill="#09c" d="M1415 2562 c-77 -37 -146 -106 -184 -185 -35 -71 -61 -165 -61 -217
0 -45 29 -108 65 -140 25 -23 34 -25 128 -25 164 1 309 55 395 149 46 50 58
91 48 170 -13 118 -77 219 -161 257 -64 29 -157 25 -230 -9z"/>
<path class="sunglasses" fill="#09c" d="M500 2515 c-92 -42 -150 -148 -151 -278 -2 -146 110 -243 306 -267
127 -15 218 -2 259 39 62 63 42 220 -45 351 -47 69 -82 101 -153 137 -64 33
-164 41 -216 18z"/>
</g>
</svg>
